<svg width="43" height="43" viewBox="0 0 43 43" fill="none" xmlns="http://www.w3.org/2000/svg">
<circle cx="22" cy="21" r="18" fill="#121D35"/>
<path d="M27.6596 23.3761C27.0621 21.9763 25.9554 20.8556 24.5633 20.2405C24.7036 20.133 24.8367 20.0164 24.9617 19.8914C25.5369 19.3158 25.9228 18.5785 26.0678 17.7778C26.2129 16.9771 26.1102 16.1512 25.7734 15.4104C25.4367 14.6696 24.8819 14.0492 24.1833 13.6321C23.4846 13.2149 22.6753 13.0208 21.8634 13.0758C21.0516 13.1307 20.2758 13.4321 19.6397 13.9396C19.0036 14.4471 18.5376 15.1366 18.3037 15.9159C18.0698 16.6953 18.0793 17.5275 18.3309 18.3014C18.5825 19.0752 19.0642 19.7539 19.7117 20.2467C18.3138 20.8739 17.204 22.0055 16.6042 23.4155C16.2928 24.1474 16.1326 24.9348 16.1333 25.7302V26.3967C16.1337 26.7503 16.2743 27.0892 16.5243 27.3392C16.7743 27.5891 17.1132 27.7298 17.4667 27.7302H26.7999C27.1534 27.7298 27.4923 27.5891 27.7423 27.3392C27.9923 27.0892 28.1329 26.7503 28.1333 26.3967V25.7071C28.1348 24.906 27.9736 24.113 27.6596 23.3761ZM20.2477 15.178C20.684 14.7417 21.2581 14.4703 21.8721 14.4098C22.4861 14.3494 23.1021 14.5038 23.6151 14.8466C24.1281 15.1894 24.5064 15.6995 24.6854 16.29C24.8645 16.8804 24.8333 17.5147 24.5971 18.0847C24.3609 18.6547 23.9344 19.1252 23.3902 19.416C22.8461 19.7068 22.2179 19.7999 21.6128 19.6795C21.0076 19.559 20.463 19.2325 20.0716 18.7555C19.6802 18.2785 19.4664 17.6806 19.4664 17.0636C19.4656 16.7133 19.5342 16.3662 19.6683 16.0426C19.8024 15.7189 19.9993 15.4251 20.2477 15.178ZM26.7999 26.3967H17.4667V25.7302C17.4662 25.1136 17.5904 24.5032 17.8317 23.9358C18.3075 22.8192 19.1925 21.9269 20.3052 21.4421C20.8724 21.1957 21.4837 21.067 22.1021 21.0636C23.0232 21.0562 23.9259 21.3214 24.6966 21.8258C25.4674 22.3302 26.0717 23.0512 26.4336 23.8983C26.6772 24.4701 26.8021 25.0855 26.8008 25.7071L26.7999 26.3967Z" fill="#D9D9D9"/>
</svg>
