<svg width="43" height="43" viewBox="0 0 43 43" fill="none" xmlns="http://www.w3.org/2000/svg">
<path d="M36.0143 9.04286C36.3571 8.81429 36.7 8.92857 37.0429 9.15714C37.2714 9.38571 37.5 9.72857 37.5 10.0714C37.5 28.0143 29.6143 33.9571 21.9571 37.3857C21.8429 37.5 21.6143 37.5 21.5 37.5C21.3857 37.5 21.1571 37.5 21.0429 37.3857C13.3857 33.9571 5.5 28.0143 5.5 10.0714C5.5 9.72857 5.72857 9.38571 5.95714 9.15714C6.3 8.92857 6.64286 8.81429 6.98571 9.04286C11.9 10.6429 16.9286 9.38571 20.7 5.84286C21.1571 5.38571 21.8429 5.38571 22.3 5.84286C26.0714 9.38571 31.1 10.6429 36.0143 9.04286Z" fill="#121D35"/>
</svg>
